<svg xmlns="http://www.w3.org/2000/svg" viewBox="-302.9 485.1 130.2 24"><path class="svg-ico" d="M-289.8 494c1.5-.7 2.4-2.2 2.3-3.8.1-1.5-.6-2.9-1.7-3.8-1.2-.9-2.7-1.3-4.2-1.2h-9.5v19.4h9.8c1.6.1 3.1-.3 4.4-1.2 1.4-1.1 2.2-2.9 2.1-4.7.1-2.1-1.2-4-3.2-4.7zm-7.9-4.7H-294.1c.9 0 1.6.8 1.5 1.7v.3c-.1.9-.9 1.5-1.8 1.4v-.1h-3.3v-3.3zm5.8 9.2c-.1 1-1 1.8-2 1.7v.1h-3.7v-4h4c1 .1 1.8 1 1.7 2v.2zM-285.7 485.1h5v19.4h-5zM-272.5 490.3c-4.4 0-7.2 2.9-7.2 7.3s2.8 7.3 7.2 7.3 7.2-2.9 7.2-7.3c0-4.3-2.8-7.3-7.2-7.3zm-.1 11.3c-1.5 0-2.2-1.6-2.2-4s.7-3.9 2.2-3.9c1.5 0 2.3 1.5 2.3 3.9s-.8 4-2.3 4zM-257.6 490.3c-4.4 0-7.2 2.9-7.2 7.3s2.8 7.3 7.2 7.3 7.2-2.9 7.2-7.3c0-4.3-2.8-7.3-7.2-7.3zm-.1 11.3c-1.5 0-2.2-1.6-2.2-4s.7-3.9 2.2-3.9c1.5 0 2.3 1.5 2.3 3.9s-.7 4-2.3 4zM-232.4 490.3c-1.8-.1-3.4.8-4.3 2.4h-.1c-.6-1.5-2.1-2.5-3.7-2.4-1.8-.1-3.4.9-4.2 2.5h-.1v-2.1h-4.6v13.8h5V497c0-1.5.6-2.6 1.8-2.6s1.7.9 1.7 2.3v7.8h4.8V497c0-1.5.6-2.6 1.8-2.6s1.7.9 1.7 2.3v7.8h4.8v-8.7c0-3.1-1.3-5.5-4.6-5.5zM-217.5 490.2c-1.5-.1-3 .6-3.9 1.9h-.1v-7h-4.8v19.4h4.6v-1.8h.1c.8 1.4 2.3 2.3 3.9 2.3 3.6 0 5.8-2.7 5.8-7.4-.1-4.2-2.1-7.4-5.6-7.4zm-1.7 11c-1.5 0-2.4-1.5-2.4-3.7s.9-3.7 2.4-3.7 2.3 1.5 2.3 3.7c-.1 2.3-.9 3.7-2.3 3.7zM-199.6 492.1c-1.3-1.2-3.1-1.9-4.8-1.8-4.1 0-7 3-7 7.3 0 4.4 2.9 7.3 7.2 7.4 3.5 0 6-1.6 6.8-4.7h-4.7c-.3.8-1.1 1.4-1.9 1.3-1.5 0-2.3-.9-2.5-2.6h9.3c0-2.9-.7-5.3-2.4-6.9zm-7 4c.1-1.6.9-2.6 2.3-2.5 1.2 0 2.1.9 2.2 2.5h-4.5zM-191.7 493.1l-.1-2.4h-4.6v13.9h4.9v-5.8c0-3.1 1.7-4.5 4.5-4h.1v-4.2c-.2-.1-.5-.2-.8-.2-1.7 0-3.3 1-4 2.7zM-172.8 502.7v-12h-4.6v1.5h-.1c-.8-1.3-2.2-2-3.7-1.9-3.2 0-5.4 3.1-5.4 7.1 0 4.3 2.6 6.6 5.6 6.6 1.3 0 2.5-.6 3.3-1.6h.1v1c0 1.5-.6 2.4-2.1 2.4-.8.1-1.7-.4-2-1.2h-4.7c.5 3.1 3 4.6 6.8 4.5 1.8.1 3.5-.4 4.9-1.5 1.3-1.3 2-3.1 1.9-4.9zm-6.8-2.4c-1.4 0-2.2-1.3-2.2-3.2 0-1.9.9-3.1 2.2-3.1 1.4 0 2.2 1.4 2.2 3.1 0 1.8-.9 3.2-2.2 3.2z"/></svg>