<svg xmlns="http://www.w3.org/2000/svg" viewBox="-317 465.1 102.7 64"><path class="svg-ico" d="M-308.4 500.6h2.2v12.3h-2.2zM-278.1 506l-2-.7c-1.1-.4-1.7-.7-1.7-1.6 0-1 1-1.5 2.2-1.5 1.3 0 2.7.5 3.7 1.3v-2.2c-1.1-.7-2.4-1-3.7-1-2.3 0-4.3 1.2-4.3 3.4 0 2 1.3 2.9 3 3.5l1.8.6c1.1.4 1.8.8 1.8 1.8 0 1.1-1 1.6-2.5 1.6s-2.9-.5-4-1.4v2.2c1.2.7 2.6 1.1 4 1.1 2.6 0 4.5-1.2 4.5-3.5.1-1.8-.9-2.8-2.8-3.6zM-291.4 508.5l-8.7-8.1v12.5h2.1v-8l8.7 8.2v-12.5h-2.1zM-269.7 500.6h2.2v12.3h-2.2zM-298.1 494c3.1 0 5.1-1.7 5.1-5.1v-7.5h-2.2v7.2c0 2.4-1 3.5-2.9 3.5s-3-1.1-3-3.5v-7.2h-2.2v7.5c.1 3.3 2.2 5.1 5.2 5.1zM-227.4 490.4c0-1.8-.9-2.9-2.9-3.6l-2.1-.7c-1.1-.4-1.7-.7-1.7-1.6 0-1 1-1.5 2.2-1.5 1.4 0 2.7.5 3.7 1.3v-2.2c-1.1-.7-2.4-1-3.8-1-2.3 0-4.3 1.2-4.3 3.4 0 2 1.3 2.9 3 3.5l1.8.6c1.1.4 1.8.8 1.8 1.8 0 1.1-1 1.6-2.5 1.6s-2.9-.5-4-1.4v2.2c1.2.7 2.6 1.1 4 1.1 2.8 0 4.8-1.2 4.8-3.5zM-254.5 481.3h-2.1v8l-8.8-8.2v12.6h2.1v-8l8.8 8.2zM-217.2 486.8l-2.1-.7c-1.1-.4-1.7-.7-1.7-1.6 0-1 1-1.5 2.2-1.5 1.4 0 2.7.5 3.7 1.3v-2.2c-1.1-.7-2.4-1-3.8-1-2.3 0-4.3 1.2-4.3 3.4 0 2 1.3 2.9 3 3.5l1.8.6c1.1.4 1.8.8 1.8 1.8 0 1.1-1 1.6-2.5 1.6s-2.9-.5-4-1.4v2.2c1.2.7 2.6 1.1 4.1 1.1 2.6 0 4.6-1.3 4.6-3.5.1-1.8-.8-2.9-2.8-3.6zM-222.6 504.3c0-2.4-1.7-3.7-4.3-3.7h-4.6v12.3h2.1v-5h1.5l4.4 5h2.4l-4.6-5.1c2.1-.2 3.1-1.4 3.1-3.5zm-6.8 1.9v-3.8h2.4c1.4 0 2.2.7 2.2 1.9 0 1.1-.8 1.9-2.2 1.9h-2.4zM-309.9 487.3c1.1-.4 1.7-1.5 1.7-2.6 0-2.2-1.7-3.4-4.3-3.4h-4.5v12.4h4.9c2.7 0 4.3-1.2 4.3-3.6 0-1.2-.8-2.3-2.1-2.8zm-5-4.1h2.3c1.5 0 2.3.5 2.3 1.7s-.8 1.7-2.3 1.7h-2.3v-3.4zm2.7 8.7h-2.7v-3.6h2.7c1.5 0 2.2.7 2.2 1.8.1 1.1-.7 1.8-2.2 1.8zM-250.2 506c-.2-3.2-3-5.6-6.2-5.4h-4.9v12.3h5.7c3.2-.2 5.6-3 5.3-6.2.1-.2.1-.5.1-.7zm-6.3 5.1h-2.6v-8.6h2.6c2.7 0 4.1 1.7 4.1 4.3 0 2.6-1.4 4.3-4.1 4.3zM-245.7 512.9h7.7v-1.8h-5.6v-3.8h5v-1.9h-5v-2.9h5.6v-1.9h-7.7zM-273.7 481.3h2.2v12.4h-2.2zM-279.2 490.4c0-1.8-.9-2.9-2.9-3.6l-2.1-.7c-1.1-.4-1.7-.7-1.7-1.6 0-1 1-1.5 2.2-1.5 1.4 0 2.7.5 3.7 1.3v-2.2c-1.1-.7-2.4-1-3.8-1-2.3 0-4.3 1.2-4.3 3.4 0 2 1.3 2.9 3 3.5l1.8.6c1.1.4 1.8.8 1.8 1.8 0 1.1-1 1.6-2.5 1.6s-2.9-.5-4-1.4v2.2c1.2.7 2.6 1.1 4 1.1 2.8.1 4.8-1.2 4.8-3.5zM-241 491.9h-5.6V488h5v-1.8h-5v-3h5.6v-1.9h-7.7v12.5h7.7z"/></svg>