<svg xmlns="http://www.w3.org/2000/svg" viewBox="0 0 72.909 24"><defs><style>.a{fill:#e2deeb;}</style></defs><g transform="translate(-1144 -1552)"><path class="a" d="M31.2,12.63a6.016,6.016,0,0,1-12.032,0,6.016,6.016,0,0,1,12.032,0Zm-2.634,0a3.392,3.392,0,1,0-6.766,0,3.392,3.392,0,1,0,6.766,0Z" transform="translate(1144 1552)"/><path class="a" d="M44.179,12.63a6.016,6.016,0,0,1-12.032,0,6.016,6.016,0,0,1,12.032,0Zm-2.633,0a3.392,3.392,0,1,0-6.766,0,3.392,3.392,0,1,0,6.766,0Z" transform="translate(1144 1552)"/><path class="a" d="M56.617,6.995V17.762c0,4.429-2.612,6.238-5.7,6.238A5.711,5.711,0,0,1,45.6,20.466l2.293-.954a3.313,3.313,0,0,0,3.02,2.128c1.977,0,3.2-1.219,3.2-3.515v-.863h-.092a4.084,4.084,0,0,1-3.158,1.363,6,6,0,0,1,0-11.992,4.155,4.155,0,0,1,3.158,1.341h.092V7h2.5ZM54.3,12.652A3.379,3.379,0,0,0,51.1,9a3.468,3.468,0,0,0-3.339,3.656A3.441,3.441,0,0,0,51.1,16.264,3.352,3.352,0,0,0,54.3,12.652Z" transform="translate(1144 1552)"/><path class="a" d="M60.741.684V18.26H58.172V.684Z" transform="translate(1144 1552)"/><path class="a" d="M70.751,14.6l2.044,1.363a5.971,5.971,0,0,1-5,2.658,5.868,5.868,0,0,1-5.951-6,5.7,5.7,0,0,1,5.657-6,5.57,5.57,0,0,1,5.132,3.815l.273.681-8.017,3.32A3.053,3.053,0,0,0,67.8,16.264a3.425,3.425,0,0,0,2.952-1.66Zm-6.292-2.158,5.359-2.225A2.323,2.323,0,0,0,67.593,8.95,3.289,3.289,0,0,0,64.459,12.446Z" transform="translate(1144 1552)"/><path class="a" d="M9.445,11.07V8.525h8.574a8.412,8.412,0,0,1,.127,1.536,8.4,8.4,0,0,1-2.2,5.951,8.517,8.517,0,0,1-6.495,2.612A9.442,9.442,0,0,1,0,9.312,9.442,9.442,0,0,1,9.447,0a8.872,8.872,0,0,1,6.381,2.566l-1.8,1.8A6.487,6.487,0,0,0,9.444,2.544,6.68,6.68,0,0,0,2.765,9.312,6.68,6.68,0,0,0,9.444,16.08a6.229,6.229,0,0,0,4.7-1.863,5.278,5.278,0,0,0,1.379-3.15Z" transform="translate(1144 1552)"/></g></svg>