<svg id="Layer_1" xmlns="http://www.w3.org/2000/svg" viewBox="-284 465.1 167.5 64"><path class="svg-ico" d="M-243.4 495.1l-.3 1.4c-.4-.8-1.4-1.9-3.6-1.9-4.1.2-7.4 3.2-8.1 7.2-.7 3.8 1.2 7.2 5.4 7.2 1.7.1 3.2-.7 4.3-1.9l-.3 1.4h4l2.5-13.4h-3.9zm-1.3 6.8c-.4 2-2 3.4-4 3.5-1.5 0-2.7-1.1-2.8-2.6 0-.3 0-.5.1-.7.3-2 2-3.4 4-3.5 1.5-.1 2.8 1.1 2.8 2.5 0 .2 0 .5-.1.8zM-233.7 496.6l.2-1.4h-3.7l-2.5 13.4h4.1l1.4-7.4c.3-2.1 1.7-2.4 3.6-2.5l.7-4.1c-1.6 0-3 .7-3.8 2zM-215.6 495.2h-4.7l-4.7 4.9h-.1l1.9-10.2h-4l-3.5 18.7h4l1.3-6.5 2.6 6.5h4.6l-3.6-7.5z"/><path class="svg-ico" d="M-209.2 494.7c-4.1 0-7.7 3.5-8.4 7.3-.7 3.1 1.2 6.2 4.3 7 .5.1 1 .2 1.5.2 1.4 0 2.9-.4 4.1-1.2 1.4-.9 2.5-2 3.4-3.4h-4.1c-.7.8-1.7 1.3-2.7 1.3-1.3.1-2.5-.8-2.7-2.1v-.4h10.1c.1-.3.2-.7.3-1 .7-4.4-1.7-7.7-5.8-7.7zm-4 5.7c.6-1.4 2-2.3 3.5-2.3 1.3-.1 2.5.8 2.6 2.1v.2h-6.1zM-267.9 500.6h-.1v-10.7h-3.4l-12.6 18.7h4.9l7.1-10.6v10.6h3.5l7-10.6h.1v10.6h4v-18.7h-3.4zM-195 491.2h-3.5l-.3 1.5c-.3 1.8-1.4 2.3-2.9 2.4l-.6 3h2l-1.9 10.4h4l1.9-10.4h2.6l.6-3h-2.5l.6-3.9zM-144.1 495.2h-2.5l.7-4h-3.5l-.3 1.5c-.3 1.8-1.4 2.3-2.9 2.4l-.6 3h2l-1.9 10.4h4l1.9-10.4h2.6l.5-2.9zM-135 503.5c-.7 1.1-1.9 1.8-3.2 1.8-1.9 0-2.9-1.5-2.6-3.4.3-1.9 1.9-3.3 3.8-3.4 1.2-.1 2.3.7 2.6 1.9h4.1v-.4c-.2-3.1-2.9-5.5-6-5.3-4.1.1-7.7 3.1-8.4 7.2-.8 4 1.8 7.2 5.9 7.2 3.5-.1 6.7-2.3 8.1-5.5h-4.3zM-117.1 496.2l-.6-.6c-2.1-1.5-5-1.1-6.5 1l1.2-6.7h-4l-3.5 18.7h4l1.4-7.4c.1-1.5 1.3-2.7 2.7-2.7 2.1 0 1.8 2.2 1.6 2.8l-1.4 7.3h4l1.4-7.5c.4-2.4.5-3.6-.3-4.9zM-163.1 489.9l-1.2-4.8-7.8 4.8h2.2l-7.1 10.7h-.1v-10.7h-3.5l-7 10.7h-.1v-10.7h-4v18.7h3.5l7.1-10.6v10.6h3.5l12.5-18.7zM-130.9 503.5zM-158.4 496.6c-.4-.8-1.4-1.9-3.7-1.9-4.1.2-7.4 3.2-8.1 7.2-.7 3.8 1.1 7.2 5.4 7.2 1.7 0 3.2-.7 4.3-1.9l-.3 1.4h4l2.5-13.4h-4l-.1 1.4zm-1 5.3c-.4 1.9-2 3.4-4 3.5-.3 0-.6 0-.8-.1-1.4-.4-2.3-1.9-1.9-3.3.3-2 2-3.4 4-3.5.3 0 .6 0 .9.1 1.4.4 2.2 1.8 1.8 3.3z"/></svg>