<svg xmlns="http://www.w3.org/2000/svg" viewBox="-319 465.1 99 64"><path class="svg-ico" d="M-275.5 487.8c-1.7-1.7-4-2.6-6.4-2.6H-295v24h9v-15h2.9c.8 0 1.6.3 2.1.9l3.1 3.1c.6.6.9 1.3.9 2.1v8.9h9V499c0-2.4-1-4.7-2.6-6.4l-4.9-4.8zM-229 485.1v8.9c0 .8-.3 1.6-.9 2.1l-3.1 3.1c-.6.6-1.3.9-2.1.9h-4.3c.9-1.4 1.4-3.1 1.4-4.9v-10.1h-9v8.9c0 .8-.3 1.6-.9 2.1l-3.1 3.1c-.6.6-1.3.9-2.1.9h-2.9v-15h-9v24h13.1c2.4 0 4.7-.9 6.4-2.6l3-3v5.6h8.6c2.4 0 4.7-.9 6.4-2.6l4.9-4.9c1.7-1.7 2.6-4 2.6-6.4v-10.1h-9zM-319 494.1h6v15h9v-15h6v-9h-21z"/></svg>