<svg xmlns="http://www.w3.org/2000/svg" viewBox="-348 481.1 39.4 32"><path class="svg-ico" d="M-321.7 481.1h1.8l.7.1 1.2.3c.4.1.7.3 1.1.5l.9.6c.3.2.5.4.7.6.3.2.7.3 1 .2.5-.1 1-.3 1.5-.4.5-.2 1.1-.4 1.6-.6.5-.2.8-.4 1-.5l.2-.1v.6c-.1.2-.2.5-.3.7-.2.4-.5.9-.8 1.3-.3.4-.5.7-.9 1-.3.2-.4.4-.5.5-.1.1-.2.2-.3.2l-.2.1h.2l1-.2c.6-.1 1.3-.3 1.9-.5l1-.3h.4v.1l-.5.6c-.1.2-.3.4-.5.6 0 0-.1 0-.1.1-.2.3-.5.5-.8.8-.4.4-.9.8-1.4 1.2-.4.3-.7.8-.7 1.3s0 1.1-.1 1.8-.1 1.4-.3 2.2c-.2.9-.4 1.8-.6 2.6-.3 1-.6 1.9-1 2.8-.4.9-.8 1.7-1.2 2.5-.4.7-.8 1.4-1.2 1.9-.4.5-.7 1-1.1 1.4-.4.4-.8 1-1.4 1.5l-.9.9c-.1.1-.3.2-.7.6s-.8.7-1.3 1c-.4.3-.8.6-1.3.8-.4.2-.9.5-1.4.8-.6.3-1.2.6-1.8.8-.6.2-1.3.5-2 .7-.7.2-1.4.4-2.1.5-.7.1-1.4.2-2.3.3l-1.3.1H-337.6c-.1 0-.6-.1-1.5-.2s-1.5-.2-2-.4-1.2-.3-2.2-.7c-.8-.3-1.7-.6-2.5-1-.7-.3-1.1-.5-1.3-.6l-.6-.3-.3-.2v-.1h.2c.1 0 .4 0 .9.1h1.5c.5 0 1.1-.1 1.6-.2.7-.1 1.3-.2 2-.4s1.4-.4 2.1-.7c.6-.3 1.1-.5 1.4-.6.4-.2.8-.5 1.2-.8l.8-.5h-.8c-.3 0-.6-.1-.8-.2-.4-.1-.8-.3-1.2-.4-.4-.2-.9-.4-1.3-.7l-.9-.6-.7-.7c-.3-.3-.5-.6-.8-1-.2-.4-.4-.8-.6-1.1l-.3-.6v-.2h.2l.4.1c.4 0 .8.1 1.2 0 .4 0 .8 0 1.2-.1.2 0 .3-.1.4-.1H-340h-.5s-.1 0-.2-.1c-.1 0-.4-.2-1-.4-.4-.2-.9-.4-1.2-.7-.3-.2-.6-.4-.9-.7-.3-.3-.6-.6-.9-1-.3-.4-.6-.9-.9-1.4l-.6-1.5-.3-1.5-.1-.7.5.2c.4.2.9.3 1.4.4.5.1.9.2 1 .2h.5l-.3-.2-.6-.6c-.2-.2-.4-.5-.6-.7-.2-.3-.4-.5-.6-.8-.2-.4-.4-.7-.5-1.1-.2-.4-.3-.9-.4-1.4-.1-.5-.1-.9-.2-1.4v-1.2c0-.4.1-.7.2-1.1.1-.4.3-.9.5-1.3l.3-.7v-.2l.5.5c.3.4.7.8 1.1 1.2l.7.7c.1 0 .1.1.2.2.2.2.5.4.7.6.4.3.9.7 1.6 1.2.7.4 1.4.9 2.2 1.3.8.4 1.7.8 2.6 1.2.9.3 1.6.6 1.9.7.4.1 1 .2 1.9.4.9.2 1.6.3 2 .3.4 0 .8.1.9.1h.2v-.2l-.1-.4c-.1-.4-.1-.8-.1-1.2 0-.5 0-1 .1-1.5s.2-.9.4-1.4c.1-.4.3-.8.5-1.1l.6-.9c.3-.4.6-.8 1-1.1.4-.4.9-.7 1.4-1 .5-.3 1-.5 1.5-.7.4-.1.8-.2 1.1-.3.5-.4.7-.4.8-.5z" fill="#1c142d"/></svg>