<svg xmlns="http://www.w3.org/2000/svg" viewBox="-298 465.1 140 64"><path class="svg-ico" d="M-245.9 493.3h-.1l-2-6.2h-2.4l3.3 8.8h2.1l3.4-8.8h-2.3zM-238.4 487.1h2.1v8.8h-2.1zM-226 493.2c0-1.7-1.5-2.3-2.7-2.6-.8-.3-1.4-.4-1.4-1 0-.7.7-.9 1.2-.9.6 0 1.2.3 1.6.8l1.3-1.4c-.8-.7-1.8-1.1-2.9-1.1-1.6 0-3.4.8-3.4 2.8 0 1.6 1.1 2.2 2.3 2.5 1.2.4 1.8.6 1.8 1.3 0 .7-.6 1-1.2 1-.7 0-1.4-.4-1.9-.9l-1.4 1.4c.9.8 2.1 1.3 3.3 1.3 1.8-.3 3.4-1.2 3.4-3.2zM-214.6 492.6v-5.5h-2.1v5.6c-.1.9-.9 1.6-1.8 1.5-.9-.1-1.6-.9-1.5-1.8v-5.3h-2.1v6c.2 1.9 1.9 3.3 3.7 3.1h.4c1.9-.1 3.4-1.7 3.4-3.6zM-208 487.1l-3.7 8.8h2.3l.7-1.7h3.4l.7 1.7h2.4l-3.7-8.8h-2.1zm-.2 5.3l1.1-3 1.1 3h-2.2zM-193.6 494h-3.4v-6.9h-2.1v8.8h5.5zM-244.9 506h-.2c-1.4-.1-2.4-1.3-2.3-2.7v-.2c0-1.4 1.1-2.5 2.5-2.5.7 0 1.3.3 1.8.8l1.4-1.4c-.8-.8-1.9-1.3-3.1-1.3-2.6-.1-4.7 2-4.7 4.5s2 4.7 4.5 4.7c1.3 0 2.6-.5 3.4-1.5l-1.5-1.4c-.4.7-1.1 1.1-1.8 1zM-235.7 498.9l-3.7 8.8h2.3l.6-1.7h3.4l.7 1.7h2.4l-3.7-8.8h-2zm-.1 5.4l1.1-3 1.1 3h-2.2zM-223.6 498.9h-3.2v8.8h2.1v-3.3h1.1c1.8 0 3.5-.7 3.5-2.8 0-2-1.5-2.7-3.5-2.7zm-.2 3.8h-.9v-2.1h.9c.8 0 1.5.2 1.5 1 .1.9-.7 1.1-1.5 1.1zM-216.3 498.9h2.1v8.8h-2.1zM-210.8 500.8h2.5v6.9h2.2v-6.9h2.4v-1.9h-7.1zM-198.3 498.9l-3.7 8.8h2.3l.6-1.7h3.4l.7 1.7h2.4l-3.7-8.8h-2zm-.2 5.4l1.1-3 1.1 3h-2.2zM-187.3 498.9h-2.1v8.8h5.5v-1.8h-3.4zM-180.4 498.9h2.1v8.8h-2.1zM-170.9 500.5c.6 0 1.2.3 1.6.8l1.3-1.4c-.8-.7-1.8-1.1-2.9-1.1-1.6 0-3.4.8-3.4 2.8 0 1.6 1.1 2.2 2.3 2.5 1.2.4 1.8.6 1.8 1.3 0 .7-.6 1-1.2 1-.7 0-1.4-.4-1.9-.9l-1.4 1.4c.9.8 2.1 1.3 3.3 1.3 1.7 0 3.4-.9 3.4-2.9 0-1.7-1.5-2.3-2.7-2.6-.8-.3-1.4-.4-1.4-1 0-1 .7-1.2 1.2-1.2zM-165.1 498.9v1.9h2.5v6.9h2.1v-6.9h2.5v-1.9zM-254.5 495.6c-.3-.8-.7-1.5-1.2-2.1-.3-.5-1.2-1.5-1.2-1.5 0-.1-8.2-8.8-8.2-8.8-1.4-1.4-3.2-2.1-5.2-2-2-.1-3.9.7-5.2 2.1-.2.1-.4.1-.6 0-1.4-1.4-3.3-2.2-5.2-2.1-2-.1-3.8.7-5.2 2.1l-7.9 8.5c-.5.5-1 1.1-1.4 1.8-.5.7-.8 1.4-1.2 2.1a12.8 12.8 0 0 0 0 9.8c.3.8.7 1.5 1.2 2.1.9 1.3 2.1 2.5 3.4 3.4.7.5 1.4.8 2.1 1.2 1.6.7 3.2 1 4.9 1 .5 0 1.1 0 1.6-.1 1.1-.1 2.2-.4 3.3-.9.8-.3 1.5-.7 2.1-1.2.7-.5 1.3-1 1.9-1.5l.7-.7c.2.2.4.5.7.7.6.6 1.2 1.1 1.9 1.5.7.5 1.4.8 2.1 1.2 3.1 1.3 6.7 1.3 9.8 0 .8-.3 1.5-.7 2.1-1.2.7-.5 1.3-1 1.9-1.5.6-.6 1.1-1.2 1.5-1.9.5-.7.8-1.4 1.2-2.1 1.4-3.2 1.4-6.8.1-9.9zm-21.5 2.1c-1.4 0-2.7.3-4 .8 1.1-1 2.5-1.5 4-1.5s2.9.5 4 1.5c-1.2-.5-2.6-.8-4-.8zm19.4 8c-1.9 3.5-5.6 5.7-9.6 5.7h-.6c.6-.8 1.1-1.6 1.5-2.5h2.8s1.1.1 1.1-3c-.1-3.1-1.3-3.2-1.3-3.2h-2.5c-.7-1.9-2-3.5-3.6-4.7-.1-.1-.1-.2-.1-.2l.2-1.7s.1-.6.1-.8c0-.1-.1-.1-.3-.1-.2 0-.4.1-.5.2 0 0-1.8 1.1-2 1.2h-.4c-1.4-.5-2.8-.7-4.2-.7-6.3 0-11.3 4.4-11.3 9.9v.3h-.1c.1-.3 0-.6-.3-.8-.2-.2-.4-.3-.7-.3-.2 0-.4.1-.5.2l-.4.2c-.3-.3-.5-.5-.8-.9.2-.1.4-.2.6-.2.1 0 .3.1.4.2l.3-.3c-.2-.3-.5-.4-.8-.4-.3 0-.5.1-.7.3-.2-.3-.4-.7-.5-1 .1.4.2.8.4 1.1-.3.2-.4.5-.5.8 0 .3.1.6.3.8.2.2.4.3.7.3.2 0 .4-.1.5-.2.3.3.7.6 1.1.8-.2.2-.5.2-.7.2-.2 0-.3-.1-.4-.3l-.3.3c.2.3.5.4.9.4s.7-.2 1-.4l.1-.1c.2.1.5.1.7.1.2 1.6.9 3.1 2 4.4-6 0-10.9-4.9-10.9-10.9s4.9-10.9 10.9-10.9c4 0 7.7 2.2 9.6 5.7 2.9-5.3 9.5-7.3 14.8-4.4 4.9 3 6.9 9.6 4 14.9zm-31.4.3c-.4-.1-.7-.2-1-.4.2-.1.3-.2.5-.2s.3.1.4.2c.1.1.1.3.1.4zm-1.9-.5c-.1 0-.2.1-.2.1-.1 0-.3 0-.4-.1-.1-.1-.2-.3-.1-.4 0-.2.1-.3.2-.4.1.3.3.6.5.8z"/></svg>