<svg xmlns="http://www.w3.org/2000/svg" viewBox="-316 465.1 103.7 64"><path class="svg-ico" d="M-275.8 478.6h-.2c-1.4 0-2.6-.6-3.5-1.6-.1.2-.3.4-.4.6l-.6.9c1.2 1.2 2.9 1.9 4.6 1.9 3.4.1 6.3-2.6 6.4-6.1v-.1c0-1.7-.8-3.4-2.1-4.5-.5.3-1 .7-1.5 1 1 .9 1.6 2.2 1.6 3.5 0 2.4-1.9 4.4-4.3 4.4zM-285.7 494.4v1.8c3.3-.8 5.3-4.1 4.5-7.4-.4-1.6-1.4-2.9-2.8-3.8-.2.6-.4 1.1-.6 1.7 1 .9 1.6 2.1 1.5 3.5.2 1.9-.9 3.6-2.6 4.2zM-281.6 510.8c.3.5.6 1 1 1.5 2.5-.8 4.2-3.2 4.2-5.8-.1-3.5-2.9-6.2-6.4-6.2-.8 0-1.7.2-2.5.5.1.6.2 1.2.4 1.7.7-.3 1.4-.5 2.1-.5 2.3-.1 4.3 1.7 4.4 4.1v.4c.1 2-1.2 3.8-3.2 4.3zM-254.5 512.7c2.6 0 4.6-2.1 4.6-4.6v-7.5h-2v7.2c0 1.7-.5 3.2-2.7 3.2s-2.7-1.5-2.7-3.2v-7.2h-2v7.5c.2 2.5 2.2 4.6 4.8 4.6zM-245 478.4h-5.3v-10.2h-1.9v11.9h7.2zM-316 496.2h7v-1.7h-5.1v-3.9h4.9v-1.7h-4.9v-2.8h5.1v-1.7h-7zM-275 488.4l8.2 8.3v-12.3h-2v7.7l-8.1-8.3v12.4h1.9zM-228.2 484.4h1.9v11.9h-1.9zM-298.8 512.4h1.9v-5.6h4.2v-1.7h-4.2v-2.8h4.4v-1.8h-6.3zM-292.7 471.7l4.2 8.9 3.3-12.4h-1.9l-1.9 7.5-3.7-7.7-3.6 7.7-1.9-7.5h-2l3.4 12.4zM-245.6 496.2l1.9-7.4h.1l3.6 7.7 3.6-7.7h.1l1.9 7.4h1.9l-3.3-12.3-4.2 8.9-4.2-8.9-3.3 12.3zM-238.9 509l-4.2-9-3.3 12.4h1.9l1.9-7.4 3.7 7.7 3.6-7.7 1.9 7.4h2l-3.4-12.4zM-270.3 507.4h1.3l3.6 5h2.2l-3.8-5.2c1.8-.2 3.1-1.9 2.9-3.7-.1-1-.7-1.9-1.6-2.4-1-.5-2.2-.6-3.3-.6h-3.2v11.9h1.9v-5zm0-5.2h.8c1.5 0 3.5 0 3.5 1.8 0 1.9-1.8 1.9-3.4 1.9h-.9v-3.7zM-265.5 480.1h1.9v-5h1.3l3.6 5h2.2l-3.8-5.2c1.7-.2 3-1.6 2.9-3.3 0-1.2-.6-2.2-1.6-2.8-1-.5-2.2-.6-3.3-.6h-3.2v11.9zm2.7-10.2c1.5 0 3.5 0 3.5 1.8 0 1.9-1.8 1.9-3.4 1.9h-.9v-3.7h.8zM-238.2 468.2h-3.3v11.9h3.2c3.8 0 6.9-1.9 6.9-6 0-4-3.1-5.9-6.8-5.9zm-.2 10.2h-1.1v-8.6h1.1c2.6 0 5.1.8 5.1 4.2s-2.5 4.4-5.1 4.4zM-213.3 494.2c-.7.4-1.4.5-2.2.5-2.4.1-4.4-1.8-4.4-4.2v-.2c-.1-2.3 1.7-4.3 4.1-4.4h.4c.8 0 1.5.2 2.2.5l1-1.4c-1-.5-2.1-.8-3.2-.8-3.5 0-6.3 2.7-6.4 6.2 0 3.4 2.8 6.2 6.2 6.2h.1c1.1 0 2.2-.3 3.2-.8l-1-1.6zM-296.8 494.2c-.7.4-1.4.5-2.2.5-2.4.1-4.4-1.8-4.4-4.2v-.2c-.1-2.3 1.7-4.3 4.1-4.4h.4c.8 0 1.5.2 2.2.5l1-1.4c-1-.5-2.1-.8-3.2-.8-3.5 0-6.3 2.7-6.4 6.2 0 3.4 2.8 6.2 6.2 6.2h.1c1.1 0 2.2-.3 3.2-.8l-1-1.6z"/><path class="svg-ico" d="M-232.5 520.4l-.4-.5c-5.9 4.8-13.2 7.4-20.8 7.4-8.6 0-16.9-3.3-23-9.3-11.2-10.8-12.7-28.1-3.7-40.7 3.8-5.2 9-9.2 15.1-11.5l-.2-.6c-2.5.9-4.9 2.2-7.2 3.7-1-.6-2.1-.9-3.2-.9-3.5 0-6.3 2.7-6.4 6.2 0 1.2.3 2.3.9 3.3-1.5 2.2-2.7 4.6-3.6 7.1-.7-.3-1.5-.4-2.3-.4-3.5 0-6.3 2.7-6.4 6.2 0 3.4 2.8 6.2 6.2 6.2h.5c.1 1.7.2 3.3.5 5-1.7 1.1-2.7 3-2.7 5.1 0 3.4 2.8 6.2 6.2 6.2h.1c.3 0 .5 0 .8-.1 1.3 2.1 2.9 4 4.7 5.8.6.6 1.2 1.1 1.8 1.6l-.8.9c12.9 10.7 31.5 10.9 44.6.3l-.7-1zm-43.9-50.7h.4c.5 0 1.1.1 1.6.3-2.2 1.7-4.1 3.7-5.8 5.9l.1-.1c-.2-.5-.3-1-.3-1.6-.1-2.4 1.7-4.4 4-4.5zm-10.6 25h-.4c-2.4.1-4.4-1.8-4.4-4.2v-.2c-.1-2.3 1.7-4.3 4.1-4.4h.4c.6 0 1.2.1 1.7.3-.8 2.7-1.3 5.6-1.4 8.5zm-.2 11.8c0-1.2.4-2.3 1.2-3.1.7 2.6 1.7 5.2 3 7.6-2.4-.2-4.2-2.1-4.2-4.5z"/><path class="svg-ico" d="M-250 490.3c-.1-3.5-3-6.3-6.5-6.2-3.4.1-6.1 2.8-6.2 6.2.1 3.5 3 6.3 6.5 6.2 3.4-.1 6.1-2.8 6.2-6.2zm-10.8.1v-.1c-.1-2.3 1.7-4.3 4.1-4.4h.4c2.3-.1 4.3 1.7 4.4 4.1v.4c0 2.4-1.9 4.5-4.4 4.5-2.5-.1-4.5-2-4.5-4.5z"/></svg>