<svg xmlns="http://www.w3.org/2000/svg" viewBox="-323 484.6 89.8 24"><style>.st0{fill:#e2deeb}@media all and (max-height:32px){#yp_mobile{display:none}}@media all and (min-height:33px){#yp_desktop{display:none}#yp_mobile{display:block}}</style><g id="yp_mobile"><path class="st0" d="M-309.8 489.3c-.3-.1-.7-.2-1.1-.2h-8.7c-.3 0-.6.1-.9.2-1.1.4-2 1.3-2.3 2.4-.1.4-.2.8-.2 1.2v8.6c.1.5.2.9.4 1.3.3.5.6.9 1.1 1.3.2.2.4.3.6.4.4.2.8.3 1.2.4h9.2c.2-.1.5-.1.7-.2.6-.2 1.2-.6 1.6-1.1.7-.7 1.1-1.7 1.1-2.7v-8c0-1.2-.5-2.2-1.4-3-.3-.2-.8-.4-1.3-.6zm.7 7.8v3.9c0 .5-.2 1-.5 1.4-.2.2-.4.4-.7.5-.3.1-.5.1-.8.1h-7.8c-.7 0-1.4-.4-1.7-1.1-.1-.3-.2-.5-.2-.8v-8c0-.7.4-1.4 1.1-1.7.3-.1.5-.2.8-.2h7.9c.5 0 1 .2 1.4.5.3.2.4.6.5.9 0 .2.1.4.1.5-.1 1.4-.1 2.7-.1 4zM-233.4 501.5c-.1 0-.1.1-.2.2s-.1.3-.2.4c-.1-.2-.2-.3-.2-.5 0-.1-.1-.1-.2-.1s-.1.1-.1.1v.8l.1.1s.1 0 .1-.1v-.2-.3c.1.2.1.3.2.5l.1.1s.1 0 .1-.1.1-.2.1-.3.1-.2.1-.3h.1v.4c0 .2 0 .2.2.2v-.9h-.2zM-269.6 494.9h-1.6c-.2 0-.2 0-.3.2-.1.5-.2 1.1-.3 1.6-.1.5-.2 1.1-.3 1.6 0 .2-.1.4-.2.6 0-.1-.1-.3-.1-.4-.1-.6-.3-1.2-.4-1.8s-.3-1.2-.4-1.8c0-.1-.1-.2-.2-.2h-1.6c-.3 0-.3 0-.3.3l-.3 1.5c-.1.6-.3 1.3-.4 1.9 0 .1-.1.3-.1.4 0 0 0-.1-.1-.1-.2-.7-.4-1.5-.5-2.2-.1-.5-.2-1.1-.3-1.6 0-.1-.1-.1-.1-.1h-1.8c-.1 0-.1.1-.1.2 0 .2.1.4.1.6l.6 2.4.9 3c0 .1.1.1.2.1h2.1c.1 0 .1 0 .1-.1.1-.2.1-.5.2-.7.2-.8.3-1.5.5-2.3 0-.1.1-.3.1-.4h.1c0 .2.1.3.1.5.2 1 .5 1.9.7 2.9 0 .1.1.1.1.1h2.1c.1 0 .1 0 .1-.1.1-.4.3-.8.4-1.2.2-.7.5-1.5.7-2.2.2-.9.4-1.7.6-2.6-.1 0-.1-.1-.3-.1zM-298.2 492.8h-1.9c-.1 0-.2.1-.2.2-.3.9-.6 1.8-1 2.6-.1.1-.1.3-.2.4h-.1l-.3-.6c-.4-.8-.7-1.6-1-2.5 0-.1-.1-.2-.2-.2h-2.1c-.1 0-.2 0-.1.2v.1c.3.6.5 1.3.8 1.9.5 1 1 1.9 1.6 2.9.1.1.1.2.1.3v2.8c0 .2 0 .2.2.2h1.7c.2 0 .2 0 .2-.2v-2.8c0-.1 0-.2.1-.3.5-.8 1-1.7 1.5-2.6.3-.8.7-1.5 1-2.3.1-.1.1-.1-.1-.1zM-234.9 498.1c-.2-.3-.6-.6-1-.7-.3-.1-.7-.2-1-.4-.2-.1-.3-.2-.3-.4s.2-.3.4-.3c.5-.1.9 0 1.4.1.3.1.3.1.3-.2.1-.4.1-.7.2-1.1 0-.1 0-.2-.1-.2-.3 0-.7-.1-1-.1-.6-.1-1.3 0-1.9.2-.7.2-1.2.8-1.3 1.5-.1.5 0 1.1.3 1.6.3.3.7.6 1.1.7.3.1.5.2.8.3.1.1.3.2.3.4 0 .3-.1.5-.5.5-.5 0-1.1 0-1.6-.2-.2-.1-.2 0-.2.1-.1.4-.1.8-.2 1.2 0 .2 0 .2.2.2l1.6.2c.4 0 .7-.1 1-.1.4-.1.7-.2 1-.4.7-.8 1-1.9.5-2.9zM-290.3 492.2h-1.6c-.2 0-.2 0-.2.3v8.6c0 .1 0 .2.2.2h1.7c.2 0 .2 0 .2-.2v-4.3-4.3c-.1-.3-.2-.3-.3-.3zM-287.3 492.2h-1.6c-.2 0-.2 0-.2.2v8.6c0 .1 0 .2.2.2h1.7c.1 0 .2 0 .2-.2v-4.3-4.3c-.1-.2-.1-.2-.3-.2zM-234.5 501.5h-.6l-.1.1.1.1c.2 0 .2.1.2.3v.5l.1.1.1-.1v-.5c0-.1 0-.3.2-.2v-.3zM-246.9 495.2c-.2 0-.4-.1-.6-.2-.7-.2-1.5-.3-2.2-.2-.6 0-1.2.1-1.8.4-.7.4-1.3 1-1.5 1.9-.1.5-.2 1-.1 1.4 0 .5.2 1.1.4 1.6.6 1 1.9 1.5 3.1 1.1.3-.1.5-.2.8-.4 0 .3 0 .6-.1 1-.1.2-.2.3-.4.4-.4.1-.7.1-1.1.1-.5 0-1.1-.1-1.6-.1-.1 0-.2 0-.2.2v1.2c0 .1 0 .2.1.2.4.1.9.1 1.3.1.7.1 1.3 0 2-.1.5-.1.9-.3 1.2-.6.5-.5.7-1.1.7-1.8v-4.3-1.4c.1-.4.1-.5 0-.5zm-1.9 1.6v2.2c0 .1 0 .2-.1.2-.3.3-.7.5-1.1.5-.4 0-.8-.3-.9-.7-.1-.5-.1-1.1 0-1.7.1-.5.6-.9 1.1-.8.2 0 .5.1.7.1.2-.1.3 0 .3.2zM-261.6 493.2c-.6-.3-1.2-.4-1.8-.4h-2.9c-.2 0-.2 0-.2.2v8c0 .1 0 .2.2.2h1.8c.2 0 .2 0 .2-.2v-2.2c0-.3 0-.3.3-.3.6 0 1.2 0 1.8-.2.6-.2 1.1-.5 1.5-1 .4-.7.6-1.5.5-2.4-.3-.8-.7-1.4-1.4-1.7zm-1.1 3c-.1.4-.5.6-.9.6h-.6c-.1 0-.2 0-.2-.2v-1.1-1.1c0-.1 0-.2.2-.2h.7c.4 0 .8.3.9.8.1.5 0 .9-.1 1.2zM-254 495.2l-1.2-.3c-.9-.2-1.8-.2-2.7 0-.7.2-1.3.5-1.7 1.1-.3.5-.5 1-.6 1.6-.1.7 0 1.5.2 2.2.3.8 1 1.4 1.8 1.5.9.2 1.7-.1 2.4-.6.1 0 .1-.1.2-.1 0 .2.1.3.1.5 0 .1.1.2.2.2h1.2c.2 0 .2 0 .2-.2v-5.6c.1-.2 0-.3-.1-.3zm-1.9 2.6v1c0 .1 0 .2-.1.3-.2.3-.5.5-.9.6-.4.1-.9-.2-1-.6-.2-.6-.2-1.2 0-1.8.1-.6.6-1 1.2-.9.2 0 .5.1.7.1.1 0 .1.1.1.2v1.1zM-281 495.1c-.5-.3-1.1-.4-1.7-.4-.6 0-1.2.1-1.8.3-.8.4-1.4 1.1-1.6 2-.1.5-.2 1.1-.1 1.6 0 .6.2 1.2.6 1.7.4.5 1 .8 1.6 1 .9.2 1.7.1 2.6-.2.8-.3 1.4-.9 1.6-1.8.3-.9.3-2-.1-2.9-.1-.5-.5-1-1.1-1.3zm-.7 3.8c-.1.6-.7 1-1.4.9-.4-.1-.8-.4-.9-.9-.1-.5-.1-1.1 0-1.6.1-.6.7-1 1.2-.9h.1c.5 0 .8.4.9.9.2.5.2 1 .1 1.6zM-242 494.8c-.6-.1-1.3-.1-1.9.1-.5.1-.9.4-1.3.7-.5.5-.8 1.2-.8 1.9-.1.7 0 1.4.1 2 .1.6.5 1 .9 1.4.4.3.9.4 1.4.5 1.1.1 2.2 0 3.2-.3.1 0 .1-.1.1-.2 0-.4-.1-.8-.1-1.1 0-.1-.1-.2-.2-.1-.2 0-.4.1-.6.1-.6.1-1.2.1-1.8.1-.5 0-.9-.5-1-1 0-.2 0-.2.2-.2h3.5c.2 0 .2 0 .2-.2v-.3c.1-.6 0-1.2-.2-1.7-.2-1-.9-1.6-1.7-1.7zm-.1 2.6H-243.8c-.1 0-.2 0-.1-.2 0-.3.1-.5.3-.8.4-.4 1-.4 1.3 0l.2.2c.1.2.1.4.1.7 0 .1-.1.1-.1.1zM-294.3 495c-.4-.2-.8-.2-1.2-.2-.7-.1-1.3.1-1.9.4-.8.4-1.3 1.1-1.4 2-.2.8-.2 1.6.1 2.4.3 1 1.1 1.7 2.2 1.8.5.1 1.1.1 1.7 0 .6 0 1.1-.2 1.7-.3.1 0 .1-.1.1-.2-.1-.4-.1-.8-.1-1.2 0-.1-.1-.1-.1-.1-.3.1-.6.1-.9.2-.5 0-1 .1-1.5 0-.6 0-1-.4-1-1 0-.2 0-.2.2-.2h3.6c.1 0 .2 0 .2-.2.1-.6 0-1.3-.1-1.9-.5-.7-1-1.2-1.6-1.5zm-.8 2.4h-1.6c-.1 0-.2 0-.2-.2 0-.6.4-1 1-1.1h.3c.3 0 .5.2.6.5.1.2.1.4.1.6 0 .1-.1.2-.2.2z"/><path class="st0" d="M-311.6 500.6c.1 0 .1-.1 0 0 0-.3-.1-.4-.2-.6-.2-.4-.4-.8-.6-1.3-.2-.4-.4-.9-.6-1.3-.1-.3-.3-.6-.4-.9 0-.1-.1-.1-.2-.1h-2.3c-.1 0-.1 0-.1.1l-.3.6-1 1.8c-.3.5-.5 1-.8 1.6 0 .1 0 .1.1.1h1.3c.1 0 .1 0 .2-.1.2-.4.5-.8.7-1.1l.9-1.5c.1-.2.2-.2.3 0 .1.1.1.2.2.3l1.5 2.4c0 .1.1.1.2.1h1.1zM-318.5 492.5c.5.5.8 1.2.8 1.9 0 .5-.1 1.1-.3 1.6 0 .1 0 .1.1.1h4.2c.1 0 .1 0 .1-.1-.3-.6-.6-1.3-.9-1.9-.2-.3-.3-.6-.5-.9-.2-.3-.5-.6-.8-.8-.3-.1-.5-.2-.8-.2h-2-.1v.1c.1 0 .2.1.2.2zM-317.5 497.3c.3-.3.6-.5.9-.8 0 0 .1-.1.2-.1h-1.8s-.1 0-.1.1c-.2.3-.5.6-.7.9-.1.1-.1.1.1.2s.4.1.6.1c.3-.2.6-.3.8-.4zM-311.3 500.9c0-.1-.1-.1-.1-.1h-1.2-.1v.1c.1.2.2.4.4.5.1.2.3.4.5.5.2.1.3.2.5.2h.4c.1 0 .1 0 .1-.1-.1-.3-.3-.7-.5-1.1zM-317.6 500.9h-.6c-.1 0-.1 0-.1.1s-.1.2-.1.3c-.1.3.1.7.4.7.3.1.3.1.5-.1l.6-.9c0-.1 0-.1-.1-.1h-.6z"/></g><g id="yp_desktop"><path class="st0" d="M-261.9 504.9c-.1-.1-.1-.1-.2-.1s-.1.1-.1.2-.1.3-.1.4c-.1-.2-.2-.3-.2-.5-.1-.1-.1-.1-.2-.1l-.1.1v.7c0 .1.1.1.1.1l.1-.1v-.1-.3c0 .1 0 .3.1.4 0 .1.1.1.1.1l.1-.1c.1-.1.1-.2.1-.3 0 0 .1-.1.1-.2h.1v.4c0 .2 0 .2.2.2l-.1-.8zM-272.1 496.2h1.8c.1 0 .1 0 .1-.1 0-.2.1-.4.1-.6.2-.7.3-1.3.5-2 0-.1.1-.3.1-.4 0 .1.1.3.1.4.2.8.4 1.7.6 2.5 0 0 0 .1.1.1h1.8l.1-.1c.1-.3.2-.7.3-1 .2-.6.4-1.2.6-1.9.2-.8.3-1.5.5-2.3 0-.1 0-.1-.1-.1h-1.4c-.2 0-.2 0-.2.2 0 .5-.1.9-.2 1.4-.1.5-.2.9-.3 1.4 0 .2-.1.4-.1.6 0-.2-.1-.3-.1-.4-.2-.5-.3-1-.4-1.5-.1-.5-.3-1-.4-1.5 0-.1-.1-.2-.2-.2h-1.4c-.2 0-.2 0-.3.2-.1.4-.2.9-.3 1.3-.1.6-.3 1.1-.4 1.6l-.3-1.5c-.1-.4-.2-.9-.3-1.4 0-.1 0-.1-.1-.1h-1.6c-.1 0-.1 0-.1.1 0 .2.1.3.1.5.2.7.3 1.4.5 2.1.3.9.5 1.7.8 2.6 0 .1 0 .1.1.1zm.8-1.9zM-290.4 488.8h-1.6c-.1-.1-.2 0-.2.1-.2.8-.5 1.6-.9 2.3-.1.2-.1.3-.2.4l-.3-.6c-.4-.7-.7-1.4-.9-2.1 0 0-.1-.1-.2-.1h-1.9c-.1 0-.2 0-.1.1v.1c.2.6.4 1.2.7 1.7.5.8.9 1.7 1.4 2.5.1.1.1.2.1.3v2.5c0 .2.1.2.2.2h1.5c.2 0 .2-.1.2-.2v-2.5s.1-.1.1-.2c.5-.8.9-1.5 1.3-2.3.3-.7.6-1.3.9-2 .1-.2 0-.2-.1-.2zM-263.3 502c-.2-.3-.6-.5-.9-.6l-.9-.3c-.1-.1-.2-.2-.2-.4s.1-.3.3-.3c.4-.1.8 0 1.2.1.3 0 .3 0 .3-.2 0-.4 0-.7.1-1 0-.1 0-.2-.1-.2-.3 0-.6-.1-.9-.1-.5 0-1.1 0-1.6.2-.6.2-1 .7-1.1 1.3-.1.5 0 1 .3 1.4.3.3.6.5 1 .6.2.1.5.2.7.3.1 0 .2.2.2.3 0 .2-.1.4-.4.4-.5 0-.9 0-1.4-.2-.2-.1-.2-.1-.2.1-.1.3-.1.7-.2 1-.1.1 0 .2.1.2l1.4.2h.9c.3-.1.6-.2.9-.4.7-.6.9-1.6.5-2.4zM-285 496.1h1.5c.2 0 .2 0 .2-.2v-3.7c0-1.3 0-2.5-.1-3.8 0-.2-.1-.2-.2-.2h-1.4c-.2 0-.2 0-.2.2v7.5c0 .2.1.2.2.2zM-282.4 496.2h1.5c.2 0 .2-.1.2-.2v-3.8c0-1.3 0-2.5-.1-3.7 0-.2-.1-.2-.2-.2h-1.4c-.2 0-.2 0-.2.2v7.5c0 .2.1.2.2.2zM-263.5 504.8c-.1 0-.1 0-.1.1s.1.1.1.1c.2 0 .2.1.2.2v.2s0 .1-.1.3l.1.1.1-.1v-.5c0-.1 0-.2.2-.2l.1-.1-.1-.1h-.5zM-301.2 486.1c-.6-.6-1.4-1-2.2-1.2-.5-.2-1.1-.2-1.6-.3h-12.2c-.2 0-.5 0-.7.1-.5.1-.9.2-1.3.3-1.7.6-2.9 2-3.5 3.6-.2.6-.3 1.2-.3 1.8v12.2c0 .3 0 .5.1.8.1.7.3 1.4.6 2 .4.7.9 1.4 1.6 1.9.3.2.6.4 1 .6.6.3 1.2.5 1.8.6 0 0 .1 0 .1.1h13.5s.1 0 .1-.1c.4-.1.8-.2 1.1-.3.9-.3 1.8-.9 2.4-1.6 1-1.1 1.6-2.6 1.6-4.1-.1-3.9-.1-7.9-.1-11.9 0-1.7-.7-3.4-2-4.5zm-1.1 10.6v5.8c0 .8-.3 1.5-.8 2.1-.3.3-.7.6-1.1.7-.4.1-.8.2-1.2.2h-11.7c-1.1 0-2.1-.6-2.6-1.6-.2-.4-.3-.8-.3-1.2v-12c0-1.1.7-2.1 1.7-2.6.4-.2.8-.3 1.2-.2h11.8c.8 0 1.5.3 2.1.8.4.4.6.8.8 1.3.1.3.1.5.1.8v5.9zM-273.7 500.8v-1.2c0-.1 0-.2-.1-.2-.2 0-.3-.1-.5-.1-.6-.2-1.3-.2-1.9-.2-.5 0-1.1.1-1.5.3-.7.3-1.1.9-1.3 1.6-.1.4-.2.8-.1 1.3 0 .5.1.9.4 1.4.6.9 1.7 1.3 2.7.9.2-.1.5-.2.7-.3 0 .3 0 .6-.1.8-.1.2-.2.3-.3.3-.3.1-.6.1-.9.1-.5 0-.9-.1-1.4-.1-.1 0-.1 0-.2.1v1c0 .1 0 .2.1.2.4 0 .7.1 1.1.1.6.1 1.2 0 1.7-.1.4-.1.8-.3 1.1-.6.4-.4.7-1 .6-1.6-.1-1.2-.1-2.5-.1-3.7zm-1.7.9v.9c0 .1 0 .1-.1.2-.2.3-.6.4-.9.4-.4 0-.7-.2-.8-.6-.1-.5-.1-1 0-1.4.1-.4.5-.8 1-.7.2 0 .4 0 .6.1.1 0 .2.1.2.2v.9zM-286.6 497.6c-.5-.2-1-.3-1.6-.3h-2.5c-.1 0-.2 0-.2.2v7c0 .1 0 .2.2.2h1.5c.2 0 .2 0 .2-.2v-1.9c0-.3 0-.3.3-.3.5 0 1 0 1.5-.2.5-.1 1-.4 1.3-.9.4-.6.5-1.4.4-2.1-.1-.7-.5-1.2-1.1-1.5zm-.9 2.7c-.1.3-.4.5-.8.5h-.5c-.1 0-.1 0-.1-.1v-.9-.9c0-.1 0-.1.1-.1h.6c.4 0 .7.3.8.7 0 .2 0 .5-.1.8zM-279.9 499.4c-.3-.1-.7-.2-1-.2-.8-.2-1.6-.2-2.3 0-.6.1-1.1.5-1.4 1-.3.4-.5.9-.5 1.4-.1.6 0 1.3.2 1.9.2.7.9 1.2 1.6 1.3.7.2 1.5 0 2.1-.6l.1-.1c0 .2.1.3.1.4 0 .1.1.1.2.1h1.1c.1 0 .2 0 .2-.2-.3-1.6-.3-3.2-.3-4.8 0-.1-.1-.2-.1-.2zm-1.7 3.1v.1c0 .1 0 .2-.1.2-.2.3-.5.4-.8.5-.4.1-.8-.2-.9-.5-.1-.5-.1-1 0-1.6.1-.5.5-.8 1-.8.2 0 .4.1.6.1.1 0 .1.1.1.2.1.3.1.6.1 1v.8zM-275.8 496.2c.7-.3 1.2-.8 1.4-1.5.4-1 .3-1.9 0-2.7-.2-.5-.5-.9-1-1.2-.4-.2-.9-.3-1.4-.3s-1.1.1-1.6.3c-.7.3-1.3 1-1.4 1.8-.1.5-.1.9-.1 1.4s.2 1 .5 1.5c.4.4.9.7 1.4.8.7.2 1.5.1 2.2-.1zm-2.2-3.5c.1-.5.6-.9 1.1-.8h.1c.4 0 .7.4.8.8.1.4.1.9 0 1.4-.1.5-.7.9-1.2.8-.4-.1-.7-.4-.8-.8-.1-.5-.1-1 0-1.4zM-269.5 499.1c-.5-.1-1.1-.1-1.6.1-.4.1-.8.3-1.1.7-.4.4-.7 1-.7 1.6-.1.6 0 1.2.1 1.8.1.5.4.9.8 1.2.4.2.8.4 1.2.4.9.1 1.9 0 2.8-.2.1 0 .1-.1.1-.2 0-.3-.1-.7-.1-1 0-.1-.1-.1-.2-.1-.2 0-.4.1-.5.1-.5.1-1.1.1-1.6.1-.4 0-.8-.4-.8-.8 0-.2 0-.2.2-.2h3.1c.2 0 .2 0 .2-.2v-.3c-.1-.7-.2-1.2-.3-1.7-.2-.7-.8-1.3-1.6-1.3zm-.1 2.2h-1.5c-.1 0-.1 0-.1-.1 0-.2.1-.5.3-.7.3-.3.8-.3 1.2 0 .1.1.1.1.1.2.1.2.1.4.1.6h-.1zM-290.7 494.6c.2.9 1 1.5 1.9 1.6.5.1 1 .1 1.4 0 .5 0 1-.2 1.5-.3.1 0 .1-.1.1-.2 0-.4-.1-.7-.1-1.1 0-.1 0-.1-.1-.1-.3.1-.5.1-.8.1-.4 0-.9.1-1.3 0-.5 0-.9-.4-.9-.9 0-.1 0-.2.1-.2h3.1c.1 0 .1 0 .2-.2-.2-.1-.2-.7-.3-1.2-.1-.6-.5-1.1-1.1-1.4-.3-.1-.7-.2-1-.2-.6 0-1.1.1-1.6.3-.7.3-1.1 1-1.2 1.7-.2.7-.1 1.4.1 2.1zm2.4-2.8h.3c.2 0 .4.2.5.4 0 .2.1.3.1.5-.1 0-.2.1-.3.1h-1.4c-.1 0-.1 0-.1-.1 0-.5.4-.9.9-.9z"/><path class="st0" d="M-306.1 501.7c.1 0 .2 0 .1-.1-.2-.3-.3-.5-.4-.8-.3-.6-.6-1.3-.9-1.9s-.6-1.3-.9-1.9c-.2-.5-.4-.9-.6-1.4-.1-.1-.2-.2-.3-.2h-3.4c-.1 0-.2 0-.2.1-.2.3-.3.6-.5.9-.4 1-.9 1.9-1.4 2.8l-1.2 2.4c-.1.2 0 .2.1.2h1.9c.1 0 .2-.1.2-.2.3-.6.7-1.1 1-1.7.5-.8.9-1.5 1.4-2.3.1-.2.3-.2.5 0 .1.1.2.3.3.4.8 1.2 1.5 2.4 2.3 3.6 0 .1.1.1.2.1h1.8zM-315.2 492.3c0 .9-.1 1.7-.5 2.4-.1.2-.1.2.1.2h6.3c.2 0 .2 0 .1-.2-.4-.9-.8-1.9-1.3-2.8-.2-.5-.4-1-.7-1.4-.3-.4-.7-.8-1.2-1.1-.3-.1-.8-.2-1.2-.2h-3.2c.2.2.3.3.4.3.8.7 1.2 1.7 1.2 2.8zM-314.9 496.8c.5-.3.9-.7 1.4-1.1 0-.1.1-.1.2-.2-.1 0-.1-.1-.1-.1h-2.5c-.1 0-.2 0-.2.1-.3.5-.7.9-1 1.4-.1.1-.1.2.1.2.4.1.7.1 1 .1.4 0 .8-.2 1.1-.4zM-305.6 502.3c0-.1-.1-.1-.2-.1h-.9c-.3 0-.6 0-.8.1h-.1v.1c.1.3.3.5.5.8s.5.6.8.8c.2.1.4.2.7.3h.7c.2 0 .2 0 .1-.2-.2-.6-.5-1.2-.8-1.8zM-314.2 502.2h-1.8c-.1 0-.2.1-.2.2 0 .2-.1.3-.1.5-.2.5.1 1 .6 1.1.4.2.5.1.7-.2.3-.5.6-.9.9-1.4.1-.2 0-.2-.1-.2z"/></g></svg>