<svg xmlns="http://www.w3.org/2000/svg" xmlns:xlink="http://www.w3.org/1999/xlink" viewBox="0 0 1920 1080"><defs><style>.a{fill:#1c142d;}.b{fill:url(#a);}.c{fill:url(#i);}</style><linearGradient id="a" y1="0.5" x2="1" y2="0.5" gradientUnits="objectBoundingBox"><stop offset="0" stop-color="#753bf2"/><stop offset="0.2" stop-color="#6b31e8"/><stop offset="0.2" stop-color="#1c142d"/></linearGradient><linearGradient id="i" y1="0.5" x2="1" y2="0.5" gradientUnits="objectBoundingBox"><stop offset="0.8" stop-color="#1c142d"/><stop offset="0.8" stop-color="#6b31e8"/><stop offset="1" stop-color="#753bf2"/></linearGradient></defs><rect class="a" width="1920" height="1080"/><g transform="translate(484 160)"><path class="b" d="M0,17.7V748.173L550.467,380.524Z"/><path class="b" d="M71.8,13.175V743.652L550.467,380.524Z"/><path class="b" d="M143.6,9.522V740L550.467,380.523Z"/><path class="b" d="M215.4,6.392V736.869L550.467,380.524Z"/><path class="b" d="M287.2,2.739V733.216L550.467,380.523Z"/><path class="b" d="M359,1.348V731.825l191.467-351.3Z"/><path class="b" d="M430.8,0V730.477L550.467,380.523Z"/><path class="b" d="M502.6,0V730.477l47.867-349.954Z"/><path class="c" d="M1436,29.523V760L550.467,380.523Z"/><path class="c" d="M1364.2,27.784V758.261L550.467,380.523Z"/><path class="c" d="M550.467,380.523,1292.4,27.784V758.261Z"/><path class="c" d="M550.467,380.523,1220.6,25.72V756.2Z"/><path class="c" d="M550.467,380.523,1148.8,22.567V753.044Z"/><path class="c" d="M550.467,380.523,1077,18.763V749.24Z"/><path class="c" d="M550.467,380.523,1005.2,15.285V745.762Z"/><path class="c" d="M550.467,380.523,933.4,13.175V743.652Z"/><path class="c" d="M550.467,380.523,861.6,9.522V740Z"/><path class="c" d="M550.467,380.523,789.8,4.849V735.326Z"/><path class="c" d="M550.467,380.523,718,2.739V733.216Z"/><path class="c" d="M646.2,0V730.477L550.467,380.523Z"/><path class="c" d="M574.4,0V730.477L550.467,380.523Z"/></g></svg>