<svg xmlns="http://www.w3.org/2000/svg" xmlns:xlink="http://www.w3.org/1999/xlink" viewBox="0 0 528 528">
  <defs>
    <style>
      .cls-1 {
        fill: url(#linear-gradient);
      }
    </style>
    <linearGradient id="linear-gradient" x1="0.5" x2="0.5" y2="1" gradientUnits="objectBoundingBox">
      <stop offset="0" stop-color="#1c142d"/>
      <stop offset="1" stop-color="#2c2249"/>
    </linearGradient>
  </defs>
  <g id="Symbol_4_1" data-name="Symbol 4 – 1" transform="translate(-696 -5632)">
    <g id="Group_57" data-name="Group 57" transform="translate(-3500 7432) rotate(-90)">
      <path id="Path_159" data-name="Path 159" class="cls-1" d="M268.733,599.589,4.733,432.5h528Z" transform="translate(1267.267 4124.412)"/>
      <path id="Path_160" data-name="Path 160" class="cls-1" d="M268.733,531.664,4.733,378.5h528Z" transform="translate(1267.267 4133.297)"/>
      <path id="Path_161" data-name="Path 161" class="cls-1" d="M268.733,463.741,4.733,324.5h528Z" transform="translate(1267.267 4142.184)"/>
      <path id="Path_162" data-name="Path 162" class="cls-1" d="M268.733,395.816,4.733,270.5h528Z" transform="translate(1267.267 4151.07)"/>
      <path id="Path_163" data-name="Path 163" class="cls-1" d="M268.733,327.892,4.733,216.5h528Z" transform="translate(1267.267 4159.956)"/>
      <path id="Path_164" data-name="Path 164" class="cls-1" d="M268.733,259.969,4.733,162.5h528Z" transform="translate(1267.267 4168.842)"/>
      <path id="Path_165" data-name="Path 165" class="cls-1" d="M268.733,192.044,4.733,108.5h528Z" transform="translate(1267.267 4177.728)"/>
      <path id="Path_166" data-name="Path 166" class="cls-1" d="M268.733,124.12,4.733,54.5h528Z" transform="translate(1267.267 4186.614)"/>
      <path id="Path_167" data-name="Path 167" class="cls-1" d="M268.733,56.2,4.733.5h528Z" transform="translate(1267.267 4195.5)"/>
    </g>
  </g>
</svg>
